<svg xmlns="http://www.w3.org/2000/svg" viewBox="0 0 1000 400" width="1000" height="400">
  <rect x="0" y="0" width="1000" height="400" fill="#fffdfa"/>
<text x="500.0" y="52" text-anchor="middle" font-family="Georgia, 'Times New Roman', serif" font-style="italic" font-size="27" font-weight="600" fill="#3a2f27">End-to-end pipeline</text><text x="500.0" y="78" text-anchor="middle" font-family="-apple-system, 'Segoe UI', Helvetica, Arial, sans-serif" font-size="13.5" fill="#7a6a5c">Web scraping → data collection → preprocessing → feature engineering → ML → prediction</text><rect x="44.0" y="150" width="132" height="128" rx="18" fill="#f1ddd0" stroke="#e7d9c9" stroke-width="1.4"/><circle cx="110.0" cy="194" r="27" fill="#fffdfa" stroke="#b05a3f" stroke-width="1.6"/><circle cx="110.0" cy="194" r="21" fill="none" stroke="#b05a3f" stroke-width="2.4"/><ellipse cx="110.0" cy="194" rx="21" ry="8.82" fill="none" stroke="#b05a3f" stroke-width="2"/><line x1="89.0" y1="194" x2="131.0" y2="194" stroke="#b05a3f" stroke-width="2"/><line x1="110.0" y1="173" x2="110.0" y2="215" stroke="#b05a3f" stroke-width="2"/><circle cx="64.0" cy="166" r="12" fill="#b05a3f"/><text x="64.0" y="170.5" text-anchor="middle" font-family="-apple-system, 'Segoe UI', Helvetica, Arial, sans-serif" font-size="12" font-weight="700" fill="#fffdfa">1</text><text x="110.0" y="254.0" text-anchor="middle" font-family="-apple-system, 'Segoe UI', Helvetica, Arial, sans-serif" font-size="12.5" font-weight="600" fill="#3a2f27">Web Scraping</text><line x1="180.0" y1="214.0" x2="196.0" y2="214.0" stroke="#a5947f" stroke-width="2"/><path d="M 196.0 209.0 L 204.0 214.0 L 196.0 219.0" fill="#a5947f"/><rect x="200.0" y="150" width="132" height="128" rx="18" fill="#f1ddd0" stroke="#e7d9c9" stroke-width="1.4"/><circle cx="266.0" cy="194" r="27" fill="#fffdfa" stroke="#b05a3f" stroke-width="1.6"/><ellipse cx="266.0" cy="180" rx="21" ry="8" fill="none" stroke="#b05a3f" stroke-width="2.4"/><path d="M 245.0 180 L 245.0 208 A 21 8 0 0 0 287.0 208 L 287.0 180" fill="none" stroke="#b05a3f" stroke-width="2.4"/><path d="M 245.0 194 A 21 8 0 0 0 287.0 194" fill="none" stroke="#b05a3f" stroke-width="2"/><circle cx="220.0" cy="166" r="12" fill="#b05a3f"/><text x="220.0" y="170.5" text-anchor="middle" font-family="-apple-system, 'Segoe UI', Helvetica, Arial, sans-serif" font-size="12" font-weight="700" fill="#fffdfa">2</text><text x="266.0" y="254.0" text-anchor="middle" font-family="-apple-system, 'Segoe UI', Helvetica, Arial, sans-serif" font-size="12.5" font-weight="600" fill="#3a2f27">Data Collection</text><line x1="336.0" y1="214.0" x2="352.0" y2="214.0" stroke="#a5947f" stroke-width="2"/><path d="M 352.0 209.0 L 360.0 214.0 L 352.0 219.0" fill="#a5947f"/><rect x="356.0" y="150" width="132" height="128" rx="18" fill="#f1ddd0" stroke="#e7d9c9" stroke-width="1.4"/><circle cx="422.0" cy="194" r="27" fill="#fffdfa" stroke="#b05a3f" stroke-width="1.6"/><path d="M 401.0 178 L 443.0 178 L 430.0 196 L 430.0 212 L 414.0 212 L 414.0 196 Z" fill="none" stroke="#b05a3f" stroke-width="2.4" stroke-linejoin="round"/><circle cx="376.0" cy="166" r="12" fill="#b05a3f"/><text x="376.0" y="170.5" text-anchor="middle" font-family="-apple-system, 'Segoe UI', Helvetica, Arial, sans-serif" font-size="12" font-weight="700" fill="#fffdfa">3</text><text x="422.0" y="254.0" text-anchor="middle" font-family="-apple-system, 'Segoe UI', Helvetica, Arial, sans-serif" font-size="12.5" font-weight="600" fill="#3a2f27">Preprocessing</text><line x1="492.0" y1="214.0" x2="508.0" y2="214.0" stroke="#a5947f" stroke-width="2"/><path d="M 508.0 209.0 L 516.0 214.0 L 508.0 219.0" fill="#a5947f"/><rect x="512.0" y="150" width="132" height="128" rx="18" fill="#f1ddd0" stroke="#e7d9c9" stroke-width="1.4"/><circle cx="578.0" cy="194" r="27" fill="#fffdfa" stroke="#b05a3f" stroke-width="1.6"/><line x1="593.0" y1="194.0" x2="599.0" y2="194.0" stroke="#b05a3f" stroke-width="4.4" stroke-linecap="round"/><line x1="588.6" y1="204.6" x2="592.8" y2="208.8" stroke="#b05a3f" stroke-width="4.4" stroke-linecap="round"/><line x1="578.0" y1="209.0" x2="578.0" y2="215.0" stroke="#b05a3f" stroke-width="4.4" stroke-linecap="round"/><line x1="567.4" y1="204.6" x2="563.2" y2="208.8" stroke="#b05a3f" stroke-width="4.4" stroke-linecap="round"/><line x1="563.0" y1="194.0" x2="557.0" y2="194.0" stroke="#b05a3f" stroke-width="4.4" stroke-linecap="round"/><line x1="567.4" y1="183.4" x2="563.2" y2="179.2" stroke="#b05a3f" stroke-width="4.4" stroke-linecap="round"/><line x1="578.0" y1="179.0" x2="578.0" y2="173.0" stroke="#b05a3f" stroke-width="4.4" stroke-linecap="round"/><line x1="588.6" y1="183.4" x2="592.8" y2="179.2" stroke="#b05a3f" stroke-width="4.4" stroke-linecap="round"/><circle cx="578.0" cy="194" r="13" fill="none" stroke="#b05a3f" stroke-width="2.6"/><circle cx="578.0" cy="194" r="5" fill="none" stroke="#b05a3f" stroke-width="2.4"/><circle cx="532.0" cy="166" r="12" fill="#b05a3f"/><text x="532.0" y="170.5" text-anchor="middle" font-family="-apple-system, 'Segoe UI', Helvetica, Arial, sans-serif" font-size="12" font-weight="700" fill="#fffdfa">4</text><text x="578.0" y="260.0" text-anchor="middle" font-family="-apple-system, 'Segoe UI', Helvetica, Arial, sans-serif" font-size="12.5" font-weight="600" fill="#3a2f27">Feature</text><text x="578.0" y="276.0" text-anchor="middle" font-family="-apple-system, 'Segoe UI', Helvetica, Arial, sans-serif" font-size="12.5" font-weight="600" fill="#3a2f27">Engineering</text><line x1="648.0" y1="214.0" x2="664.0" y2="214.0" stroke="#a5947f" stroke-width="2"/><path d="M 664.0 209.0 L 672.0 214.0 L 664.0 219.0" fill="#a5947f"/><rect x="668.0" y="150" width="132" height="128" rx="18" fill="#f1ddd0" stroke="#e7d9c9" stroke-width="1.4"/><circle cx="734.0" cy="194" r="27" fill="#fffdfa" stroke="#b05a3f" stroke-width="1.6"/><line x1="734.0" y1="176" x2="752.0" y2="204" stroke="#b05a3f" stroke-width="1.6" opacity="0.55"/><line x1="716.0" y1="204" x2="734.0" y2="176" stroke="#b05a3f" stroke-width="1.6" opacity="0.55"/><line x1="716.0" y1="204" x2="752.0" y2="204" stroke="#b05a3f" stroke-width="1.6" opacity="0.55"/><line x1="734.0" y1="176" x2="734.0" y2="204" stroke="#b05a3f" stroke-width="1.6" opacity="0.55"/><circle cx="734.0" cy="176" r="5" fill="#b05a3f"/><circle cx="716.0" cy="204" r="5" fill="#b05a3f"/><circle cx="752.0" cy="204" r="5" fill="#b05a3f"/><circle cx="734.0" cy="194" r="5" fill="#b05a3f"/><circle cx="688.0" cy="166" r="12" fill="#b05a3f"/><text x="688.0" y="170.5" text-anchor="middle" font-family="-apple-system, 'Segoe UI', Helvetica, Arial, sans-serif" font-size="12" font-weight="700" fill="#fffdfa">5</text><text x="734.0" y="254.0" text-anchor="middle" font-family="-apple-system, 'Segoe UI', Helvetica, Arial, sans-serif" font-size="12.5" font-weight="600" fill="#3a2f27">Model Training</text><line x1="804.0" y1="214.0" x2="820.0" y2="214.0" stroke="#a5947f" stroke-width="2"/><path d="M 820.0 209.0 L 828.0 214.0 L 820.0 219.0" fill="#a5947f"/><rect x="824.0" y="150" width="132" height="128" rx="18" fill="#e3e8dc" stroke="#e7d9c9" stroke-width="1.4"/><circle cx="890.0" cy="194" r="27" fill="#fffdfa" stroke="#5f6f4d" stroke-width="1.6"/><circle cx="890.0" cy="188" r="15" fill="none" stroke="#5f6f4d" stroke-width="2.4"/><path d="M 884.0 203 L 884.0 211 L 896.0 211 L 896.0 203" fill="none" stroke="#5f6f4d" stroke-width="2.4"/><line x1="886.0" y1="215" x2="894.0" y2="215" stroke="#5f6f4d" stroke-width="2.4" stroke-linecap="round"/><line x1="912.0" y1="188.0" x2="918.0" y2="188.0" stroke="#5f6f4d" stroke-width="1.6" opacity="0.35" stroke-linecap="round"/><line x1="905.6" y1="203.6" x2="909.8" y2="207.8" stroke="#5f6f4d" stroke-width="1.6" opacity="0.35" stroke-linecap="round"/><line x1="890.0" y1="210.0" x2="890.0" y2="216.0" stroke="#5f6f4d" stroke-width="1.6" opacity="0.35" stroke-linecap="round"/><line x1="874.4" y1="203.6" x2="870.2" y2="207.8" stroke="#5f6f4d" stroke-width="1.6" opacity="0.35" stroke-linecap="round"/><line x1="868.0" y1="188.0" x2="862.0" y2="188.0" stroke="#5f6f4d" stroke-width="1.6" opacity="0.35" stroke-linecap="round"/><line x1="874.4" y1="172.4" x2="870.2" y2="168.2" stroke="#5f6f4d" stroke-width="1.6" opacity="0.35" stroke-linecap="round"/><line x1="890.0" y1="166.0" x2="890.0" y2="160.0" stroke="#5f6f4d" stroke-width="1.6" opacity="0.35" stroke-linecap="round"/><line x1="905.6" y1="172.4" x2="909.8" y2="168.2" stroke="#5f6f4d" stroke-width="1.6" opacity="0.35" stroke-linecap="round"/><circle cx="844.0" cy="166" r="12" fill="#5f6f4d"/><text x="844.0" y="170.5" text-anchor="middle" font-family="-apple-system, 'Segoe UI', Helvetica, Arial, sans-serif" font-size="12" font-weight="700" fill="#fffdfa">6</text><text x="890.0" y="254.0" text-anchor="middle" font-family="-apple-system, 'Segoe UI', Helvetica, Arial, sans-serif" font-size="12.5" font-weight="600" fill="#3a2f27">Prediction</text><line x1="240.0" y1="324" x2="760.0" y2="324" stroke="#e7d9c9" stroke-width="1.2"/><text x="500.0" y="356" text-anchor="middle" font-family="-apple-system, 'Segoe UI', Helvetica, Arial, sans-serif" font-size="12.5" fill="#a5947f">Historical data (2014–2025), 8 leagues → engineered features (Elo, xG, form, odds) → tuned LogReg / Random Forest / XGBoost → per-league prediction</text>
</svg>
